<svg width="14" height="14" viewBox="0 0 14 14" fill="none" xmlns="http://www.w3.org/2000/svg">
<path fill-rule="evenodd" clip-rule="evenodd" d="M10.6828 0.710725C11.4026 0.0565886 12.5165 0.109829 13.1707 0.829624C13.8248 1.54942 13.7716 2.66324 13.0518 3.31738L9.28921 6.73685L12.9381 10.1697C13.6465 10.8362 13.6806 11.9508 13.0141 12.6592C12.3476 13.3676 11.233 13.4016 10.5246 12.7351L6.6746 9.11299L2.951 12.497C2.2312 13.1512 1.11738 13.098 0.463169 12.3782C-0.190974 11.6584 -0.137726 10.5445 0.582069 9.89034L4.10133 6.69209L0.58363 3.38267C-0.124788 2.71619 -0.158844 1.60162 0.507636 0.893201C1.17412 0.184783 2.28868 0.150727 2.9971 0.817207L6.71594 4.31587L10.6828 0.710725Z" fill="#515151"/>
</svg>
