<svg width="25" height="27" viewBox="0 0 25 27" fill="none" xmlns="http://www.w3.org/2000/svg">
<path d="M10.5541 1.58418C11.0498 -0.528061 13.9502 -0.528061 14.446 1.58418C14.7982 3.08409 16.5522 3.67438 17.6882 2.67526C19.2883 1.26822 21.6348 3.03389 20.8371 5.04455C20.2706 6.47231 21.3547 8.01774 22.8409 7.90101C24.9337 7.73664 25.83 10.5935 24.0435 11.7347C22.775 12.5449 22.775 14.4552 24.0435 15.2653C25.83 16.4064 24.9337 19.2634 22.8409 19.099C21.3547 18.9823 20.2706 20.5276 20.8371 21.9555C21.6348 23.9661 19.2883 25.7318 17.6882 24.3247C16.5522 23.3256 14.7982 23.9158 14.446 25.4159C13.9502 27.528 11.0498 27.528 10.5541 25.4159C10.2019 23.9158 8.44778 23.3256 7.31171 24.3247C5.71183 25.7318 3.36532 23.9661 4.16301 21.9555C4.72942 20.5276 3.64529 18.9823 2.15916 19.099C0.0662702 19.2634 -0.830002 16.4064 0.956453 15.2653C2.22502 14.4552 2.22502 12.5449 0.956453 11.7347C-0.830002 10.5935 0.0662702 7.73664 2.15916 7.90101C3.64529 8.01774 4.72942 6.47231 4.16301 5.04455C3.36532 3.03389 5.71183 1.26822 7.31171 2.67526C8.44778 3.67438 10.2019 3.08409 10.5541 1.58418Z" fill="#B0B0B0"/>
</svg>
