<svg width="25" height="25" viewBox="0 0 25 25" fill="none" xmlns="http://www.w3.org/2000/svg">
<rect width="6.27091" height="17.1405" transform="matrix(-0.707107 -0.707107 -0.707107 0.707107 23.2264 6.20862)" fill="black"/>
<path d="M23.8166 5.61654C24.4696 4.96349 24.4696 3.90468 23.8166 3.25163L21.7473 1.18233C21.0942 0.529282 20.0354 0.529281 19.3824 1.18233L23.8166 5.61654Z" fill="black"/>
<path d="M6.08065 14.4859C5.4276 15.1389 5.4276 16.1977 6.08065 16.8508L8.14994 18.9201C8.80299 19.5731 9.8618 19.5731 10.5149 18.9201L6.08065 14.4859Z" fill="black"/>
<path d="M3.69467 19.9901C3.3324 20.8228 4.17794 21.6683 5.0106 21.306L8.13245 19.9478C8.77903 19.6665 8.9392 18.8223 8.4406 18.3237L6.67701 16.5601C6.17842 16.0615 5.33425 16.2217 5.05294 16.8682L3.69467 19.9901Z" fill="black"/>
</svg>
